<?xml version="1.0" encoding="utf-8"?>
<!-- Generator: Adobe Illustrator 28.0.0, SVG Export Plug-In . SVG Version: 6.00 Build 0)  -->
<svg version="1.1" id="Layer_1" xmlns="http://www.w3.org/2000/svg" xmlns:xlink="http://www.w3.org/1999/xlink" x="0px" y="0px"
	 viewBox="0 0 238.19 136.81" style="enable-background:new 0 0 238.19 136.81;" xml:space="preserve">
<g id="XMLID_161_">
	<g id="XMLID_133_">
		<path id="XMLID_132_" d="M167.83,34.52c0,0-0.43-0.35-1.23-1.01c-0.79-0.71-2-1.53-3.5-2.61c-1.52-1.02-3.4-2.15-5.56-3.32
			c-2.17-1.14-4.64-2.25-7.34-3.36c-2.72-1.02-5.67-2.05-8.81-2.91c-3.13-0.92-6.47-1.55-9.91-2.25c-6.9-1.15-14.29-1.89-21.68-1.83
			c-3.72,0.02-7.41,0.09-11.03,0.47c-3.63,0.34-7.21,0.77-10.66,1.36c-3.44,0.7-6.77,1.34-9.91,2.26c-3.14,0.86-6.09,1.9-8.81,2.91
			c-2.7,1.1-5.17,2.21-7.34,3.35c-2.16,1.17-4.03,2.3-5.56,3.32c-1.51,1.1-2.71,1.91-3.5,2.61c-0.8,0.65-1.23,1-1.23,1
			s0.39-0.47,1.12-1.36c0.72-0.92,1.82-2.15,3.26-3.61c1.45-1.41,3.24-3.06,5.37-4.66c1.06-0.83,2.21-1.59,3.41-2.46
			c1.21-0.78,2.5-1.57,3.85-2.35c2.71-1.5,5.67-3.05,8.84-4.25c3.17-1.31,6.54-2.41,10.05-3.31c3.51-0.81,7.14-1.69,10.86-2.04
			c3.72-0.47,7.5-0.65,11.26-0.74c3.78,0.1,7.55,0.27,11.26,0.74c3.71,0.36,7.35,1.23,10.86,2.04c3.51,0.9,6.88,2.01,10.05,3.31
			c3.18,1.2,6.14,2.75,8.84,4.25c1.35,0.78,2.64,1.57,3.85,2.35c1.2,0.87,2.35,1.63,3.41,2.46c2.12,1.61,3.91,3.26,5.37,4.66
			c1.45,1.46,2.54,2.69,3.26,3.6C167.45,34.05,167.83,34.52,167.83,34.52"/>
		<path id="XMLID_131_" d="M50.17,41.93c0-0.35,0.1-0.64,0.32-0.9c0.21-0.25,0.53-0.38,0.95-0.38h8.49c0.29,0,0.6,0.12,0.92,0.35
			c0.33,0.23,0.49,0.54,0.49,0.92v40.34c0,0.85-0.47,1.27-1.41,1.27h-8.49c-0.85,0-1.27-0.42-1.27-1.27V41.93z"/>
		<path id="XMLID_130_" d="M76.05,69.68c0.33,0.27,0.75,0.63,1.26,1.08c0.51,0.45,1.09,0.9,1.75,1.34c0.98,0.66,1.96,1.17,2.92,1.53
			c0.96,0.37,1.97,0.55,3.03,0.55c0.98,0,1.81-0.11,2.47-0.33c0.66-0.22,1.19-0.51,1.57-0.88c0.38-0.37,0.66-0.79,0.82-1.27
			c0.16-0.48,0.25-0.99,0.25-1.53c0-0.6-0.23-1.13-0.68-1.6c-0.45-0.47-1-0.89-1.66-1.26c-0.66-0.37-1.34-0.68-2.05-0.94
			c-0.71-0.26-1.33-0.48-1.85-0.65c-2.31-0.81-4.33-1.68-6.06-2.61c-1.73-0.93-3.18-1.97-4.33-3.12c-1.16-1.14-2.02-2.4-2.6-3.78
			c-0.58-1.38-0.86-2.91-0.86-4.6c0-1.79,0.36-3.41,1.08-4.88c0.72-1.46,1.75-2.71,3.09-3.75c1.34-1.04,2.95-1.84,4.84-2.41
			c1.88-0.57,3.99-0.85,6.32-0.85c1.75,0,3.43,0.2,5.04,0.59c1.61,0.39,3.19,1.03,4.75,1.89c0.66,0.38,1.28,0.78,1.86,1.2
			c0.59,0.41,1.1,0.81,1.55,1.2c0.44,0.39,0.79,0.75,1.05,1.1c0.26,0.35,0.39,0.65,0.39,0.9c0,0.25-0.06,0.48-0.19,0.69
			c-0.13,0.21-0.31,0.45-0.56,0.72l-4.42,4.71c-0.33,0.33-0.66,0.49-0.98,0.49c-0.27,0-0.52-0.08-0.74-0.23
			c-0.22-0.15-0.47-0.35-0.74-0.58l-0.26-0.23c-0.38-0.33-0.81-0.66-1.28-1.01c-0.47-0.35-0.98-0.66-1.52-0.94
			c-0.54-0.28-1.11-0.51-1.7-0.69c-0.6-0.18-1.2-0.28-1.82-0.28c-0.64,0-1.23,0.05-1.79,0.16c-0.56,0.11-1.05,0.27-1.47,0.5
			c-0.43,0.23-0.76,0.53-1.01,0.91c-0.25,0.38-0.38,0.83-0.38,1.37c0,0.54,0.13,1.01,0.41,1.4c0.27,0.39,0.67,0.76,1.21,1.1
			c0.54,0.34,1.21,0.65,2.01,0.95c0.8,0.3,1.73,0.62,2.79,0.97c2.04,0.67,3.92,1.38,5.65,2.12c1.72,0.74,3.21,1.62,4.46,2.63
			c1.25,1.01,2.23,2.22,2.93,3.62c0.7,1.41,1.05,3.11,1.05,5.11c0,2.12-0.43,4.04-1.3,5.76c-0.86,1.72-2.05,3.19-3.57,4.41
			c-1.51,1.21-3.29,2.15-5.33,2.82c-2.04,0.66-4.24,1-6.58,1c-2.21,0-4.39-0.4-6.53-1.19c-2.14-0.79-4.13-1.85-5.98-3.19
			c-0.77-0.56-1.42-1.11-1.95-1.65c-0.53-0.54-0.95-0.97-1.26-1.3l-0.09-0.09c-0.02-0.04-0.04-0.06-0.06-0.07
			c-0.02-0.01-0.04-0.02-0.06-0.04c-0.02-0.04-0.04-0.06-0.06-0.07c-0.02-0.01-0.04-0.03-0.06-0.04c-0.44-0.48-0.66-0.87-0.66-1.16
			c0-0.33,0.22-0.7,0.66-1.1l5-4.77c0.4-0.29,0.73-0.43,0.98-0.43c0.17,0,0.36,0.06,0.55,0.17C75.54,69.27,75.77,69.45,76.05,69.68"
			/>
		<path id="XMLID_129_" d="M108.53,41.98c0-0.4,0.11-0.73,0.33-0.97c0.22-0.24,0.53-0.36,0.93-0.36h28.65
			c0.42,0,0.75,0.12,0.98,0.38c0.23,0.25,0.35,0.58,0.35,1.01v7.14c0,0.33-0.11,0.64-0.35,0.94c-0.23,0.3-0.57,0.45-1.01,0.45
			h-18.72v7.16h14.44c0.37,0,0.67,0.09,0.91,0.26c0.24,0.17,0.36,0.46,0.36,0.87v6.24c0,0.27-0.1,0.53-0.32,0.78
			c-0.21,0.25-0.52,0.38-0.92,0.38h-14.47v7.39h19.41c0.87,0,1.3,0.44,1.3,1.33v7.26c0,0.19-0.08,0.36-0.23,0.52
			c-0.08,0.54-0.47,0.81-1.18,0.81h-29.2c-0.38,0-0.69-0.1-0.92-0.3c-0.23-0.2-0.35-0.52-0.35-0.94V41.98z"/>
		<path id="XMLID_128_" d="M145.18,41.92c0-0.38,0.13-0.69,0.39-0.92c0.26-0.23,0.58-0.35,0.97-0.35h31.07
			c0.35,0,0.65,0.11,0.92,0.32c0.27,0.21,0.43,0.53,0.46,0.95v7.17c0,0.35-0.12,0.68-0.36,0.99c-0.24,0.32-0.58,0.48-1.02,0.48
			h-9.96v31.62c0,0.35-0.12,0.66-0.37,0.94c-0.25,0.28-0.58,0.42-0.98,0.42h-8.47c-0.33,0-0.63-0.13-0.92-0.39
			c-0.29-0.26-0.43-0.58-0.43-0.97V50.56h-9.93c-0.38,0-0.71-0.12-0.97-0.37c-0.26-0.25-0.39-0.61-0.39-1.09V41.92z"/>
	</g>
	<g id="XMLID_160_">
		<g id="XMLID_222_">
			<path id="XMLID_223_" d="M23.03,113.54h-5.24v4.86h5.84v1.46h-7.58v-13.48h7.28v1.46h-5.54v4.26h5.24V113.54z"/>
			<path id="XMLID_225_" d="M34.11,105.65v11.7c0,0.86,0.02,1.84,0.08,2.5h-1.58l-0.08-1.68h-0.04c-0.54,1.08-1.72,1.9-3.3,1.9
				c-2.34,0-4.14-1.98-4.14-4.92c-0.02-3.22,1.98-5.2,4.34-5.2c1.48,0,2.48,0.7,2.92,1.48h0.04v-5.78H34.11z M32.35,114.12
				c0-0.22-0.02-0.52-0.08-0.74c-0.26-1.12-1.22-2.04-2.54-2.04c-1.82,0-2.9,1.6-2.9,3.74c0,1.96,0.96,3.58,2.86,3.58
				c1.18,0,2.26-0.78,2.58-2.1c0.06-0.24,0.08-0.48,0.08-0.76V114.12z"/>
			<path id="XMLID_228_" d="M45.13,117.22c0,1,0.02,1.88,0.08,2.64h-1.56l-0.1-1.58h-0.04c-0.46,0.78-1.48,1.8-3.2,1.8
				c-1.52,0-3.34-0.84-3.34-4.24v-5.66h1.76v5.36c0,1.84,0.56,3.08,2.16,3.08c1.18,0,2-0.82,2.32-1.6c0.1-0.26,0.16-0.58,0.16-0.9
				v-5.94h1.76V117.22z"/>
			<path id="XMLID_230_" d="M54.95,119.5c-0.46,0.24-1.48,0.56-2.78,0.56c-2.92,0-4.82-1.98-4.82-4.94c0-2.98,2.04-5.14,5.2-5.14
				c1.04,0,1.96,0.26,2.44,0.5l-0.4,1.36c-0.42-0.24-1.08-0.46-2.04-0.46c-2.22,0-3.42,1.64-3.42,3.66c0,2.24,1.44,3.62,3.36,3.62
				c1,0,1.66-0.26,2.16-0.48L54.95,119.5z"/>
			<path id="XMLID_232_" d="M62.37,119.86l-0.14-1.22h-0.06c-0.54,0.76-1.58,1.44-2.96,1.44c-1.96,0-2.96-1.38-2.96-2.78
				c0-2.34,2.08-3.62,5.82-3.6v-0.2c0-0.8-0.22-2.24-2.2-2.24c-0.9,0-1.84,0.28-2.52,0.72l-0.4-1.16c0.8-0.52,1.96-0.86,3.18-0.86
				c2.96,0,3.68,2.02,3.68,3.96v3.62c0,0.84,0.04,1.66,0.16,2.32H62.37z M62.11,114.92c-1.92-0.04-4.1,0.3-4.1,2.18
				c0,1.14,0.76,1.68,1.66,1.68c1.26,0,2.06-0.8,2.34-1.62c0.06-0.18,0.1-0.38,0.1-0.56V114.92z"/>
			<path id="XMLID_235_" d="M68.69,107.39v2.78h2.52v1.34h-2.52v5.22c0,1.2,0.34,1.88,1.32,1.88c0.46,0,0.8-0.06,1.02-0.12
				l0.08,1.32c-0.34,0.14-0.88,0.24-1.56,0.24c-0.82,0-1.48-0.26-1.9-0.74c-0.5-0.52-0.68-1.38-0.68-2.52v-5.28h-1.5v-1.34h1.5
				v-2.32L68.69,107.39z"/>
			<path id="XMLID_237_" d="M75.15,107.45c0.02,0.6-0.42,1.08-1.12,1.08c-0.62,0-1.06-0.48-1.06-1.08c0-0.62,0.46-1.1,1.1-1.1
				C74.73,106.35,75.15,106.83,75.15,107.45z M73.19,119.86v-9.68h1.76v9.68H73.19z"/>
			<path id="XMLID_240_" d="M86.63,114.94c0,3.58-2.48,5.14-4.82,5.14c-2.62,0-4.64-1.92-4.64-4.98c0-3.24,2.12-5.14,4.8-5.14
				C84.75,109.96,86.63,111.98,86.63,114.94z M78.95,115.04c0,2.12,1.22,3.72,2.94,3.72c1.68,0,2.94-1.58,2.94-3.76
				c0-1.64-0.82-3.72-2.9-3.72C79.85,111.28,78.95,113.2,78.95,115.04z"/>
			<path id="XMLID_320_" d="M88.85,112.8c0-1-0.02-1.82-0.08-2.62h1.56l0.1,1.6h0.04c0.48-0.92,1.6-1.82,3.2-1.82
				c1.34,0,3.42,0.8,3.42,4.12v5.78h-1.76v-5.58c0-1.56-0.58-2.86-2.24-2.86c-1.16,0-2.06,0.82-2.36,1.8
				c-0.08,0.22-0.12,0.52-0.12,0.82v5.82h-1.76V112.8z"/>
			<path id="XMLID_322_" d="M105.31,119.86l-0.14-1.22h-0.06c-0.54,0.76-1.58,1.44-2.96,1.44c-1.96,0-2.96-1.38-2.96-2.78
				c0-2.34,2.08-3.62,5.82-3.6v-0.2c0-0.8-0.22-2.24-2.2-2.24c-0.9,0-1.84,0.28-2.52,0.72l-0.4-1.16c0.8-0.52,1.96-0.86,3.18-0.86
				c2.96,0,3.68,2.02,3.68,3.96v3.62c0,0.84,0.04,1.66,0.16,2.32H105.31z M105.05,114.92c-1.92-0.04-4.1,0.3-4.1,2.18
				c0,1.14,0.76,1.68,1.66,1.68c1.26,0,2.06-0.8,2.34-1.62c0.06-0.18,0.1-0.38,0.1-0.56V114.92z"/>
			<path id="XMLID_325_" d="M109.59,105.65h1.76v14.2h-1.76V105.65z"/>
			<path id="XMLID_327_" d="M120.35,107.86h-4.1v-1.48h9.98v1.48h-4.12v12h-1.76V107.86z"/>
			<path id="XMLID_329_" d="M127.23,115.34c0.04,2.38,1.56,3.36,3.32,3.36c1.26,0,2.02-0.22,2.68-0.5l0.3,1.26
				c-0.62,0.28-1.68,0.6-3.22,0.6c-2.98,0-4.76-1.96-4.76-4.88c0-2.92,1.72-5.22,4.54-5.22c3.16,0,4,2.78,4,4.56
				c0,0.36-0.04,0.64-0.06,0.82H127.23z M132.39,114.08c0.02-1.12-0.46-2.86-2.44-2.86c-1.78,0-2.56,1.64-2.7,2.86H132.39z"/>
			<path id="XMLID_332_" d="M143.17,119.5c-0.46,0.24-1.48,0.56-2.78,0.56c-2.92,0-4.82-1.98-4.82-4.94c0-2.98,2.04-5.14,5.2-5.14
				c1.04,0,1.96,0.26,2.44,0.5l-0.4,1.36c-0.42-0.24-1.08-0.46-2.04-0.46c-2.22,0-3.42,1.64-3.42,3.66c0,2.24,1.44,3.62,3.36,3.62
				c1,0,1.66-0.26,2.16-0.48L143.17,119.5z"/>
			<path id="XMLID_334_" d="M145.23,105.65h1.76v6.04h0.04c0.28-0.5,0.72-0.94,1.26-1.24c0.52-0.3,1.14-0.5,1.8-0.5
				c1.3,0,3.38,0.8,3.38,4.14v5.76h-1.76v-5.56c0-1.56-0.58-2.88-2.24-2.88c-1.14,0-2.04,0.8-2.36,1.76
				c-0.1,0.24-0.12,0.5-0.12,0.84v5.84h-1.76V105.65z"/>
			<path id="XMLID_336_" d="M156.33,112.8c0-1-0.02-1.82-0.08-2.62h1.56l0.1,1.6h0.04c0.48-0.92,1.6-1.82,3.2-1.82
				c1.34,0,3.42,0.8,3.42,4.12v5.78h-1.76v-5.58c0-1.56-0.58-2.86-2.24-2.86c-1.16,0-2.06,0.82-2.36,1.8
				c-0.08,0.22-0.12,0.52-0.12,0.82v5.82h-1.76V112.8z"/>
			<path id="XMLID_338_" d="M176.19,114.94c0,3.58-2.48,5.14-4.82,5.14c-2.62,0-4.64-1.92-4.64-4.98c0-3.24,2.12-5.14,4.8-5.14
				C174.31,109.96,176.19,111.98,176.19,114.94z M168.51,115.04c0,2.12,1.22,3.72,2.94,3.72c1.68,0,2.94-1.58,2.94-3.76
				c0-1.64-0.82-3.72-2.9-3.72C169.41,111.28,168.51,113.2,168.51,115.04z"/>
			<path id="XMLID_341_" d="M178.41,105.65h1.76v14.2h-1.76V105.65z"/>
			<path id="XMLID_343_" d="M191.89,114.94c0,3.58-2.48,5.14-4.82,5.14c-2.62,0-4.64-1.92-4.64-4.98c0-3.24,2.12-5.14,4.8-5.14
				C190.01,109.96,191.89,111.98,191.89,114.94z M184.21,115.04c0,2.12,1.22,3.72,2.94,3.72c1.68,0,2.94-1.58,2.94-3.76
				c0-1.64-0.82-3.72-2.9-3.72C185.11,111.28,184.21,113.2,184.21,115.04z"/>
			<path id="XMLID_346_" d="M202.45,110.18c-0.04,0.7-0.08,1.48-0.08,2.66v5.62c0,2.22-0.44,3.58-1.38,4.42
				c-0.94,0.88-2.3,1.16-3.52,1.16c-1.16,0-2.44-0.28-3.22-0.8l0.44-1.34c0.64,0.4,1.64,0.76,2.84,0.76c1.8,0,3.12-0.94,3.12-3.38
				v-1.08h-0.04c-0.54,0.9-1.58,1.62-3.08,1.62c-2.4,0-4.12-2.04-4.12-4.72c0-3.28,2.14-5.14,4.36-5.14c1.68,0,2.6,0.88,3.02,1.68
				h0.04l0.08-1.46H202.45z M200.63,114c0-0.3-0.02-0.56-0.1-0.8c-0.32-1.02-1.18-1.86-2.46-1.86c-1.68,0-2.88,1.42-2.88,3.66
				c0,1.9,0.96,3.48,2.86,3.48c1.08,0,2.06-0.68,2.44-1.8c0.1-0.3,0.14-0.64,0.14-0.94V114z"/>
			<path id="XMLID_349_" d="M205.93,110.18l2.12,5.72c0.22,0.64,0.46,1.4,0.62,1.98h0.04c0.18-0.58,0.38-1.32,0.62-2.02l1.92-5.68
				h1.86l-2.64,6.9c-1.26,3.32-2.12,5.02-3.32,6.06c-0.86,0.76-1.72,1.06-2.16,1.14l-0.44-1.48c0.44-0.14,1.02-0.42,1.54-0.86
				c0.48-0.38,1.08-1.06,1.48-1.96c0.08-0.18,0.14-0.32,0.14-0.42c0-0.1-0.04-0.24-0.12-0.46l-3.58-8.92H205.93z"/>
		</g>
		<g id="XMLID_164_">
			<path id="XMLID_165_" d="M44.88,92.47v8.08h-1.04v-8.08H44.88z"/>
			<path id="XMLID_167_" d="M46.79,96.32c0-0.6-0.01-1.09-0.05-1.57h0.94l0.06,0.96h0.02c0.29-0.55,0.96-1.09,1.92-1.09
				c0.8,0,2.05,0.48,2.05,2.47v3.47h-1.06v-3.35c0-0.94-0.35-1.71-1.34-1.71c-0.7,0-1.24,0.49-1.42,1.08
				c-0.05,0.13-0.07,0.31-0.07,0.49v3.49h-1.06V96.32z"/>
			<path id="XMLID_169_" d="M54.67,93.08v1.67h1.51v0.8h-1.51v3.13c0,0.72,0.2,1.13,0.79,1.13c0.28,0,0.48-0.04,0.61-0.07l0.05,0.79
				c-0.2,0.08-0.53,0.14-0.94,0.14c-0.49,0-0.89-0.16-1.14-0.44c-0.3-0.31-0.41-0.83-0.41-1.51v-3.17h-0.9v-0.8h0.9v-1.39
				L54.67,93.08z"/>
			<path id="XMLID_171_" d="M57.89,97.84c0.02,1.43,0.94,2.01,1.99,2.01c0.76,0,1.21-0.13,1.61-0.3l0.18,0.76
				c-0.37,0.17-1.01,0.36-1.93,0.36c-1.79,0-2.85-1.18-2.85-2.93c0-1.75,1.03-3.13,2.72-3.13c1.9,0,2.4,1.67,2.4,2.73
				c0,0.22-0.02,0.38-0.04,0.49H57.89z M60.98,97.09c0.01-0.67-0.28-1.71-1.46-1.71c-1.07,0-1.54,0.98-1.62,1.71H60.98z"/>
			<path id="XMLID_174_" d="M63.31,96.56c0-0.68-0.01-1.27-0.05-1.81h0.92l0.04,1.14h0.05c0.26-0.78,0.9-1.27,1.61-1.27
				c0.12,0,0.2,0.01,0.3,0.04v1c-0.11-0.02-0.22-0.04-0.36-0.04c-0.74,0-1.27,0.56-1.42,1.36c-0.02,0.14-0.05,0.31-0.05,0.49v3.09
				h-1.04V96.56z"/>
			<path id="XMLID_176_" d="M67.28,96.32c0-0.6-0.01-1.09-0.05-1.57h0.94l0.06,0.96h0.02c0.29-0.55,0.96-1.09,1.92-1.09
				c0.8,0,2.05,0.48,2.05,2.47v3.47h-1.06v-3.35c0-0.94-0.35-1.71-1.34-1.71c-0.7,0-1.24,0.49-1.42,1.08
				c-0.05,0.13-0.07,0.31-0.07,0.49v3.49h-1.06V96.32z"/>
			<path id="XMLID_178_" d="M77.16,100.55l-0.08-0.73h-0.04c-0.32,0.46-0.95,0.86-1.77,0.86c-1.18,0-1.77-0.83-1.77-1.67
				c0-1.4,1.25-2.17,3.49-2.16v-0.12c0-0.48-0.13-1.34-1.32-1.34c-0.54,0-1.1,0.17-1.51,0.43l-0.24-0.7
				c0.48-0.31,1.18-0.52,1.91-0.52c1.77,0,2.21,1.21,2.21,2.37v2.17c0,0.5,0.02,1,0.1,1.39H77.16z M77,97.59
				c-1.15-0.02-2.46,0.18-2.46,1.31c0,0.68,0.46,1.01,1,1.01c0.76,0,1.24-0.48,1.4-0.97C76.98,98.83,77,98.71,77,98.6V97.59z"/>
			<path id="XMLID_181_" d="M80.95,93.08v1.67h1.51v0.8h-1.51v3.13c0,0.72,0.2,1.13,0.79,1.13c0.28,0,0.48-0.04,0.61-0.07l0.05,0.79
				c-0.2,0.08-0.53,0.14-0.94,0.14c-0.49,0-0.89-0.16-1.14-0.44c-0.3-0.31-0.41-0.83-0.41-1.51v-3.17h-0.9v-0.8h0.9v-1.39
				L80.95,93.08z"/>
			<path id="XMLID_183_" d="M84.83,93.12c0.01,0.36-0.25,0.65-0.67,0.65c-0.37,0-0.64-0.29-0.64-0.65c0-0.37,0.28-0.66,0.66-0.66
				C84.57,92.46,84.83,92.75,84.83,93.12z M83.65,100.55v-5.8h1.06v5.8H83.65z"/>
			<path id="XMLID_186_" d="M91.71,97.6c0,2.15-1.49,3.08-2.89,3.08c-1.57,0-2.78-1.15-2.78-2.99c0-1.94,1.27-3.08,2.88-3.08
				C90.59,94.62,91.71,95.83,91.71,97.6z M87.11,97.66c0,1.27,0.73,2.23,1.76,2.23c1.01,0,1.76-0.95,1.76-2.25
				c0-0.98-0.49-2.23-1.74-2.23C87.65,95.41,87.11,96.56,87.11,97.66z"/>
			<path id="XMLID_189_" d="M93.05,96.32c0-0.6-0.01-1.09-0.05-1.57h0.94l0.06,0.96h0.02c0.29-0.55,0.96-1.09,1.92-1.09
				c0.8,0,2.05,0.48,2.05,2.47v3.47h-1.06v-3.35c0-0.94-0.35-1.71-1.34-1.71c-0.7,0-1.24,0.49-1.42,1.08
				c-0.05,0.13-0.07,0.31-0.07,0.49v3.49h-1.06V96.32z"/>
			<path id="XMLID_191_" d="M102.92,100.55l-0.08-0.73h-0.04c-0.32,0.46-0.95,0.86-1.77,0.86c-1.18,0-1.77-0.83-1.77-1.67
				c0-1.4,1.25-2.17,3.49-2.16v-0.12c0-0.48-0.13-1.34-1.32-1.34c-0.54,0-1.1,0.17-1.51,0.43l-0.24-0.7
				c0.48-0.31,1.18-0.52,1.91-0.52c1.77,0,2.21,1.21,2.21,2.37v2.17c0,0.5,0.02,1,0.1,1.39H102.92z M102.76,97.59
				c-1.15-0.02-2.46,0.18-2.46,1.31c0,0.68,0.46,1.01,1,1.01c0.76,0,1.24-0.48,1.4-0.97c0.04-0.11,0.06-0.23,0.06-0.34V97.59z"/>
			<path id="XMLID_194_" d="M105.49,92.04h1.06v8.52h-1.06V92.04z"/>
			<path id="XMLID_196_" d="M110.76,99.28c0.47,0.29,1.15,0.53,1.87,0.53c1.07,0,1.69-0.56,1.69-1.38c0-0.76-0.43-1.19-1.52-1.61
				c-1.32-0.47-2.13-1.15-2.13-2.29c0-1.26,1.04-2.19,2.61-2.19c0.83,0,1.43,0.19,1.79,0.4l-0.29,0.85
				c-0.26-0.14-0.8-0.38-1.54-0.38c-1.1,0-1.52,0.66-1.52,1.21c0,0.76,0.49,1.13,1.61,1.56c1.37,0.53,2.06,1.19,2.06,2.38
				c0,1.25-0.92,2.33-2.83,2.33c-0.78,0-1.63-0.23-2.06-0.52L110.76,99.28z"/>
			<path id="XMLID_198_" d="M117.07,94.75l1.27,3.43c0.13,0.38,0.28,0.84,0.37,1.19h0.02c0.11-0.35,0.23-0.79,0.37-1.21l1.15-3.41
				h1.12l-1.58,4.14c-0.76,1.99-1.27,3.01-1.99,3.63c-0.52,0.46-1.03,0.64-1.29,0.68l-0.26-0.89c0.26-0.08,0.61-0.25,0.92-0.52
				c0.29-0.23,0.65-0.64,0.89-1.18c0.05-0.11,0.08-0.19,0.08-0.25c0-0.06-0.02-0.14-0.07-0.28l-2.15-5.35H117.07z"/>
			<path id="XMLID_200_" d="M122.34,96.32c0-0.6-0.01-1.09-0.05-1.57h0.92l0.05,0.94h0.04c0.32-0.55,0.86-1.07,1.82-1.07
				c0.79,0,1.39,0.48,1.64,1.16h0.02c0.18-0.32,0.41-0.58,0.65-0.76c0.35-0.26,0.73-0.41,1.28-0.41c0.77,0,1.91,0.5,1.91,2.52v3.42
				h-1.03v-3.29c0-1.12-0.41-1.79-1.26-1.79c-0.6,0-1.07,0.44-1.25,0.96c-0.05,0.14-0.08,0.34-0.08,0.53v3.59h-1.03v-3.48
				c0-0.92-0.41-1.6-1.21-1.6c-0.66,0-1.14,0.53-1.31,1.06c-0.06,0.16-0.08,0.34-0.08,0.52v3.5h-1.03V96.32z"/>
			<path id="XMLID_202_" d="M132.35,96.64c0-0.74-0.02-1.34-0.05-1.9h0.95l0.05,1h0.02c0.43-0.71,1.12-1.13,2.06-1.13
				c1.4,0,2.46,1.19,2.46,2.95c0,2.09-1.27,3.12-2.64,3.12c-0.77,0-1.44-0.34-1.79-0.91h-0.02v3.15h-1.04V96.64z M133.39,98.19
				c0,0.16,0.02,0.3,0.05,0.43c0.19,0.73,0.83,1.24,1.58,1.24c1.12,0,1.76-0.91,1.76-2.24c0-1.16-0.61-2.16-1.73-2.16
				c-0.72,0-1.39,0.52-1.6,1.31c-0.04,0.13-0.07,0.29-0.07,0.43V98.19z"/>
			<path id="XMLID_205_" d="M144.43,97.6c0,2.15-1.49,3.08-2.89,3.08c-1.57,0-2.78-1.15-2.78-2.99c0-1.94,1.27-3.08,2.88-3.08
				C143.3,94.62,144.43,95.83,144.43,97.6z M139.82,97.66c0,1.27,0.73,2.23,1.76,2.23c1.01,0,1.76-0.95,1.76-2.25
				c0-0.98-0.49-2.23-1.74-2.23C140.36,95.41,139.82,96.56,139.82,97.66z"/>
			<path id="XMLID_208_" d="M145.62,99.47c0.31,0.2,0.86,0.42,1.39,0.42c0.77,0,1.13-0.38,1.13-0.86c0-0.5-0.3-0.78-1.08-1.07
				c-1.04-0.37-1.54-0.95-1.54-1.64c0-0.94,0.76-1.7,2-1.7c0.59,0,1.1,0.17,1.43,0.36l-0.26,0.77c-0.23-0.14-0.65-0.34-1.19-0.34
				c-0.62,0-0.97,0.36-0.97,0.79c0,0.48,0.35,0.7,1.1,0.98c1.01,0.38,1.52,0.89,1.52,1.75c0,1.02-0.79,1.74-2.17,1.74
				c-0.64,0-1.22-0.16-1.63-0.4L145.62,99.47z"/>
			<path id="XMLID_210_" d="M151.69,93.12c0.01,0.36-0.25,0.65-0.67,0.65c-0.37,0-0.64-0.29-0.64-0.65c0-0.37,0.28-0.66,0.66-0.66
				C151.44,92.46,151.69,92.75,151.69,93.12z M150.51,100.55v-5.8h1.06v5.8H150.51z"/>
			<path id="XMLID_213_" d="M158.18,98.97c0,0.6,0.01,1.13,0.05,1.58h-0.94l-0.06-0.95h-0.02c-0.28,0.47-0.89,1.08-1.92,1.08
				c-0.91,0-2-0.5-2-2.54v-3.39h1.06v3.21c0,1.1,0.34,1.85,1.3,1.85c0.71,0,1.2-0.49,1.39-0.96c0.06-0.16,0.1-0.35,0.1-0.54v-3.56
				h1.06V98.97z"/>
			<path id="XMLID_215_" d="M159.93,96.32c0-0.6-0.01-1.09-0.05-1.57h0.92l0.05,0.94h0.04c0.32-0.55,0.86-1.07,1.82-1.07
				c0.79,0,1.39,0.48,1.64,1.16h0.02c0.18-0.32,0.41-0.58,0.65-0.76c0.35-0.26,0.73-0.41,1.28-0.41c0.77,0,1.91,0.5,1.91,2.52v3.42
				h-1.03v-3.29c0-1.12-0.41-1.79-1.26-1.79c-0.6,0-1.07,0.44-1.25,0.96c-0.05,0.14-0.08,0.34-0.08,0.53v3.59h-1.03v-3.48
				c0-0.92-0.41-1.6-1.21-1.6c-0.66,0-1.14,0.53-1.31,1.06c-0.06,0.16-0.08,0.34-0.08,0.52v3.5h-1.03V96.32z"/>
			<path id="XMLID_217_" d="M177.74,97.6c0,2.15-1.49,3.08-2.89,3.08c-1.57,0-2.78-1.15-2.78-2.99c0-1.94,1.27-3.08,2.88-3.08
				C176.61,94.62,177.74,95.83,177.74,97.6z M173.13,97.66c0,1.27,0.73,2.23,1.76,2.23c1.01,0,1.76-0.95,1.76-2.25
				c0-0.98-0.49-2.23-1.74-2.23C173.67,95.41,173.13,96.56,173.13,97.66z"/>
			<path id="XMLID_220_" d="M179.07,96.32c0-0.6-0.01-1.09-0.05-1.57h0.94l0.06,0.96h0.02c0.29-0.55,0.96-1.09,1.92-1.09
				c0.8,0,2.05,0.48,2.05,2.47v3.47h-1.06v-3.35c0-0.94-0.35-1.71-1.34-1.71c-0.7,0-1.24,0.49-1.42,1.08
				c-0.05,0.13-0.07,0.31-0.07,0.49v3.49h-1.06V96.32z"/>
		</g>
	</g>
</g>
</svg>
