<?xml version="1.0" encoding="utf-8"?>
<!-- Generator: Adobe Illustrator 26.3.1, SVG Export Plug-In . SVG Version: 6.00 Build 0)  -->
<svg version="1.1" id="Layer_1" xmlns="http://www.w3.org/2000/svg" xmlns:xlink="http://www.w3.org/1999/xlink" x="0px" y="0px"
	 viewBox="0 0 200 200" style="enable-background:new 0 0 200 200;" xml:space="preserve">
<style type="text/css">
	.st0{fill:#FFFFFF;}
	.st1{fill:#231F20;}
</style>
<circle class="st0" cx="100" cy="100" r="100"/>
<g id="XMLID_161_">
	<g id="XMLID_133_">
		<path id="XMLID_132_" class="st1" d="M148.2,66.3c0,0-0.4-0.3-1-0.9c-0.7-0.6-1.7-1.3-3-2.2c-1.3-0.9-2.9-1.8-4.7-2.8
			c-1.8-1-3.9-1.9-6.2-2.8c-2.3-0.9-4.8-1.7-7.5-2.5c-2.7-0.8-5.5-1.3-8.4-1.9c-5.9-1-12.1-1.6-18.4-1.5c-3.2,0-6.3,0.1-9.4,0.4
			c-3.1,0.3-6.1,0.6-9,1.2c-2.9,0.6-5.7,1.1-8.4,1.9c-2.7,0.7-5.2,1.6-7.5,2.5c-2.3,0.9-4.4,1.9-6.2,2.8c-1.8,1-3.4,2-4.7,2.8
			c-1.3,0.9-2.3,1.6-3,2.2c-0.7,0.6-1,0.9-1,0.9s0.3-0.4,0.9-1.2c0.6-0.8,1.5-1.8,2.8-3.1c1.2-1.2,2.8-2.6,4.6-4
			c0.9-0.7,1.9-1.3,2.9-2.1c1-0.7,2.1-1.3,3.3-2c2.3-1.3,4.8-2.6,7.5-3.6c2.7-1.1,5.5-2,8.5-2.8c3-0.7,6.1-1.4,9.2-1.7
			c3.2-0.4,6.4-0.5,9.6-0.6c3.2,0.1,6.4,0.2,9.6,0.6c3.2,0.3,6.2,1,9.2,1.7c3,0.8,5.8,1.7,8.5,2.8c2.7,1,5.2,2.3,7.5,3.6
			c1.1,0.7,2.2,1.3,3.3,2c1,0.7,2,1.4,2.9,2.1c1.8,1.4,3.3,2.8,4.6,4c1.2,1.2,2.2,2.3,2.8,3.1C147.8,65.9,148.2,66.3,148.2,66.3"/>
		<path id="XMLID_131_" class="st1" d="M48.4,72.6c0-0.3,0.1-0.5,0.3-0.8c0.2-0.2,0.4-0.3,0.8-0.3h7.2c0.2,0,0.5,0.1,0.8,0.3
			c0.3,0.2,0.4,0.5,0.4,0.8v34.2c0,0.7-0.4,1.1-1.2,1.1h-7.2c-0.7,0-1.1-0.4-1.1-1.1V72.6z"/>
		<path id="XMLID_130_" class="st1" d="M70.3,96.1c0.3,0.2,0.6,0.5,1.1,0.9c0.4,0.4,0.9,0.8,1.5,1.1c0.8,0.6,1.7,1,2.5,1.3
			c0.8,0.3,1.7,0.5,2.6,0.5c0.8,0,1.5-0.1,2.1-0.3c0.6-0.2,1-0.4,1.3-0.7c0.3-0.3,0.6-0.7,0.7-1.1c0.1-0.4,0.2-0.8,0.2-1.3
			c0-0.5-0.2-1-0.6-1.4c-0.4-0.4-0.9-0.8-1.4-1.1c-0.6-0.3-1.1-0.6-1.7-0.8c-0.6-0.2-1.1-0.4-1.6-0.6c-2-0.7-3.7-1.4-5.1-2.2
			c-1.5-0.8-2.7-1.7-3.7-2.6c-1-1-1.7-2-2.2-3.2c-0.5-1.2-0.7-2.5-0.7-3.9c0-1.5,0.3-2.9,0.9-4.1c0.6-1.2,1.5-2.3,2.6-3.2
			c1.1-0.9,2.5-1.6,4.1-2c1.6-0.5,3.4-0.7,5.4-0.7c1.5,0,2.9,0.2,4.3,0.5c1.4,0.3,2.7,0.9,4,1.6c0.6,0.3,1.1,0.7,1.6,1
			c0.5,0.4,0.9,0.7,1.3,1c0.4,0.3,0.7,0.6,0.9,0.9c0.2,0.3,0.3,0.5,0.3,0.8c0,0.2-0.1,0.4-0.2,0.6c-0.1,0.2-0.3,0.4-0.5,0.6l-3.7,4
			c-0.3,0.3-0.6,0.4-0.8,0.4c-0.2,0-0.4-0.1-0.6-0.2c-0.2-0.1-0.4-0.3-0.6-0.5l-0.2-0.2c-0.3-0.3-0.7-0.6-1.1-0.9
			c-0.4-0.3-0.8-0.6-1.3-0.8c-0.5-0.2-0.9-0.4-1.4-0.6c-0.5-0.2-1-0.2-1.5-0.2c-0.5,0-1,0-1.5,0.1c-0.5,0.1-0.9,0.2-1.2,0.4
			c-0.4,0.2-0.6,0.5-0.9,0.8c-0.2,0.3-0.3,0.7-0.3,1.2c0,0.5,0.1,0.9,0.3,1.2c0.2,0.3,0.6,0.6,1,0.9c0.5,0.3,1,0.6,1.7,0.8
			c0.7,0.3,1.5,0.5,2.4,0.8c1.7,0.6,3.3,1.2,4.8,1.8c1.5,0.6,2.7,1.4,3.8,2.2c1.1,0.9,1.9,1.9,2.5,3.1c0.6,1.2,0.9,2.6,0.9,4.3
			c0,1.8-0.4,3.4-1.1,4.9c-0.7,1.5-1.7,2.7-3,3.7c-1.3,1-2.8,1.8-4.5,2.4c-1.7,0.6-3.6,0.8-5.6,0.8c-1.9,0-3.7-0.3-5.5-1
			c-1.8-0.7-3.5-1.6-5.1-2.7c-0.7-0.5-1.2-0.9-1.7-1.4c-0.4-0.5-0.8-0.8-1.1-1.1l-0.1-0.1c0,0,0-0.1,0-0.1c0,0,0,0,0,0
			c0,0,0-0.1-0.1-0.1c0,0,0,0,0,0c-0.4-0.4-0.6-0.7-0.6-1c0-0.3,0.2-0.6,0.6-0.9l4.2-4c0.3-0.2,0.6-0.4,0.8-0.4c0.1,0,0.3,0,0.5,0.1
			C69.9,95.8,70.1,95.9,70.3,96.1"/>
		<path id="XMLID_129_" class="st1" d="M97.9,72.6c0-0.3,0.1-0.6,0.3-0.8c0.2-0.2,0.5-0.3,0.8-0.3h24.3c0.4,0,0.6,0.1,0.8,0.3
			c0.2,0.2,0.3,0.5,0.3,0.9v6.1c0,0.3-0.1,0.5-0.3,0.8c-0.2,0.3-0.5,0.4-0.9,0.4h-15.9V86h12.2c0.3,0,0.6,0.1,0.8,0.2
			c0.2,0.1,0.3,0.4,0.3,0.7v5.3c0,0.2-0.1,0.5-0.3,0.7c-0.2,0.2-0.4,0.3-0.8,0.3h-12.3v6.3h16.5c0.7,0,1.1,0.4,1.1,1.1v6.2
			c0,0.2-0.1,0.3-0.2,0.4c-0.1,0.5-0.4,0.7-1,0.7H98.9c-0.3,0-0.6-0.1-0.8-0.3c-0.2-0.2-0.3-0.4-0.3-0.8V72.6z"/>
		<path id="XMLID_128_" class="st1" d="M129,72.6c0-0.3,0.1-0.6,0.3-0.8c0.2-0.2,0.5-0.3,0.8-0.3h26.4c0.3,0,0.6,0.1,0.8,0.3
			c0.2,0.2,0.4,0.4,0.4,0.8v6.1c0,0.3-0.1,0.6-0.3,0.8c-0.2,0.3-0.5,0.4-0.9,0.4H148v26.8c0,0.3-0.1,0.6-0.3,0.8
			c-0.2,0.2-0.5,0.4-0.8,0.4h-7.2c-0.3,0-0.5-0.1-0.8-0.3c-0.2-0.2-0.4-0.5-0.4-0.8V79.9h-8.4c-0.3,0-0.6-0.1-0.8-0.3
			c-0.2-0.2-0.3-0.5-0.3-0.9V72.6z"/>
	</g>
	<g id="XMLID_160_">
		<g id="XMLID_222_">
			<path id="XMLID_223_" class="st1" d="M25.3,133.3h-4.4v4.1h5v1.2h-6.4v-11.4h6.2v1.2h-4.7v3.6h4.4V133.3z"/>
			<path id="XMLID_225_" class="st1" d="M34.7,126.6v9.9c0,0.7,0,1.6,0.1,2.1h-1.3l-0.1-1.4h0c-0.5,0.9-1.5,1.6-2.8,1.6
				c-2,0-3.5-1.7-3.5-4.2c0-2.7,1.7-4.4,3.7-4.4c1.3,0,2.1,0.6,2.5,1.3h0v-4.9H34.7z M33.2,133.8c0-0.2,0-0.4-0.1-0.6
				c-0.2-1-1-1.7-2.2-1.7c-1.5,0-2.5,1.4-2.5,3.2c0,1.7,0.8,3,2.4,3c1,0,1.9-0.7,2.2-1.8c0.1-0.2,0.1-0.4,0.1-0.6V133.8z"/>
			<path id="XMLID_228_" class="st1" d="M44.1,136.5c0,0.8,0,1.6,0.1,2.2h-1.3l-0.1-1.3h0c-0.4,0.7-1.3,1.5-2.7,1.5
				c-1.3,0-2.8-0.7-2.8-3.6v-4.8h1.5v4.5c0,1.6,0.5,2.6,1.8,2.6c1,0,1.7-0.7,2-1.4c0.1-0.2,0.1-0.5,0.1-0.8v-5h1.5V136.5z"/>
			<path id="XMLID_230_" class="st1" d="M52.4,138.4c-0.4,0.2-1.3,0.5-2.4,0.5c-2.5,0-4.1-1.7-4.1-4.2c0-2.5,1.7-4.4,4.4-4.4
				c0.9,0,1.7,0.2,2.1,0.4l-0.3,1.2c-0.4-0.2-0.9-0.4-1.7-0.4c-1.9,0-2.9,1.4-2.9,3.1c0,1.9,1.2,3.1,2.9,3.1c0.8,0,1.4-0.2,1.8-0.4
				L52.4,138.4z"/>
			<path id="XMLID_232_" class="st1" d="M58.7,138.7l-0.1-1h-0.1c-0.5,0.6-1.3,1.2-2.5,1.2c-1.7,0-2.5-1.2-2.5-2.4
				c0-2,1.8-3.1,4.9-3.1v-0.2c0-0.7-0.2-1.9-1.9-1.9c-0.8,0-1.6,0.2-2.1,0.6l-0.3-1c0.7-0.4,1.7-0.7,2.7-0.7c2.5,0,3.1,1.7,3.1,3.4
				v3.1c0,0.7,0,1.4,0.1,2H58.7z M58.5,134.5c-1.6,0-3.5,0.3-3.5,1.8c0,1,0.6,1.4,1.4,1.4c1.1,0,1.7-0.7,2-1.4
				c0.1-0.2,0.1-0.3,0.1-0.5V134.5z"/>
			<path id="XMLID_235_" class="st1" d="M64.1,128.1v2.4h2.1v1.1h-2.1v4.4c0,1,0.3,1.6,1.1,1.6c0.4,0,0.7-0.1,0.9-0.1l0.1,1.1
				c-0.3,0.1-0.7,0.2-1.3,0.2c-0.7,0-1.3-0.2-1.6-0.6c-0.4-0.4-0.6-1.2-0.6-2.1v-4.5h-1.3v-1.1h1.3v-2L64.1,128.1z"/>
			<path id="XMLID_237_" class="st1" d="M69.5,128.2c0,0.5-0.4,0.9-1,0.9c-0.5,0-0.9-0.4-0.9-0.9c0-0.5,0.4-0.9,0.9-0.9
				C69.2,127.2,69.5,127.6,69.5,128.2z M67.9,138.7v-8.2h1.5v8.2H67.9z"/>
			<path id="XMLID_240_" class="st1" d="M79.3,134.5c0,3-2.1,4.4-4.1,4.4c-2.2,0-3.9-1.6-3.9-4.2c0-2.7,1.8-4.4,4.1-4.4
				C77.7,130.3,79.3,132,79.3,134.5z M72.8,134.6c0,1.8,1,3.2,2.5,3.2c1.4,0,2.5-1.3,2.5-3.2c0-1.4-0.7-3.2-2.5-3.2
				C73.5,131.4,72.8,133,72.8,134.6z"/>
			<path id="XMLID_320_" class="st1" d="M81.2,132.7c0-0.8,0-1.5-0.1-2.2h1.3l0.1,1.4h0c0.4-0.8,1.4-1.5,2.7-1.5
				c1.1,0,2.9,0.7,2.9,3.5v4.9h-1.5V134c0-1.3-0.5-2.4-1.9-2.4c-1,0-1.7,0.7-2,1.5c-0.1,0.2-0.1,0.4-0.1,0.7v4.9h-1.5V132.7z"/>
			<path id="XMLID_322_" class="st1" d="M95.1,138.7l-0.1-1H95c-0.5,0.6-1.3,1.2-2.5,1.2c-1.7,0-2.5-1.2-2.5-2.4
				c0-2,1.8-3.1,4.9-3.1v-0.2c0-0.7-0.2-1.9-1.9-1.9c-0.8,0-1.6,0.2-2.1,0.6l-0.3-1c0.7-0.4,1.7-0.7,2.7-0.7c2.5,0,3.1,1.7,3.1,3.4
				v3.1c0,0.7,0,1.4,0.1,2H95.1z M94.9,134.5c-1.6,0-3.5,0.3-3.5,1.8c0,1,0.6,1.4,1.4,1.4c1.1,0,1.7-0.7,2-1.4
				c0.1-0.2,0.1-0.3,0.1-0.5V134.5z"/>
			<path id="XMLID_325_" class="st1" d="M98.8,126.6h1.5v12h-1.5V126.6z"/>
			<path id="XMLID_327_" class="st1" d="M107.9,128.5h-3.5v-1.3h8.5v1.3h-3.5v10.2h-1.5V128.5z"/>
			<path id="XMLID_329_" class="st1" d="M113.7,134.9c0,2,1.3,2.9,2.8,2.9c1.1,0,1.7-0.2,2.3-0.4l0.3,1.1c-0.5,0.2-1.4,0.5-2.7,0.5
				c-2.5,0-4-1.7-4-4.1c0-2.5,1.5-4.4,3.9-4.4c2.7,0,3.4,2.4,3.4,3.9c0,0.3,0,0.5-0.1,0.7H113.7z M118.1,133.8c0-1-0.4-2.4-2.1-2.4
				c-1.5,0-2.2,1.4-2.3,2.4H118.1z"/>
			<path id="XMLID_332_" class="st1" d="M127.3,138.4c-0.4,0.2-1.3,0.5-2.4,0.5c-2.5,0-4.1-1.7-4.1-4.2c0-2.5,1.7-4.4,4.4-4.4
				c0.9,0,1.7,0.2,2.1,0.4l-0.3,1.2c-0.4-0.2-0.9-0.4-1.7-0.4c-1.9,0-2.9,1.4-2.9,3.1c0,1.9,1.2,3.1,2.9,3.1c0.8,0,1.4-0.2,1.8-0.4
				L127.3,138.4z"/>
			<path id="XMLID_334_" class="st1" d="M129,126.6h1.5v5.1h0c0.2-0.4,0.6-0.8,1.1-1.1c0.4-0.3,1-0.4,1.5-0.4c1.1,0,2.9,0.7,2.9,3.5
				v4.9h-1.5V134c0-1.3-0.5-2.4-1.9-2.4c-1,0-1.7,0.7-2,1.5c-0.1,0.2-0.1,0.4-0.1,0.7v5H129V126.6z"/>
			<path id="XMLID_336_" class="st1" d="M138.4,132.7c0-0.8,0-1.5-0.1-2.2h1.3l0.1,1.4h0c0.4-0.8,1.4-1.5,2.7-1.5
				c1.1,0,2.9,0.7,2.9,3.5v4.9h-1.5V134c0-1.3-0.5-2.4-1.9-2.4c-1,0-1.7,0.7-2,1.5c-0.1,0.2-0.1,0.4-0.1,0.7v4.9h-1.5V132.7z"/>
			<path id="XMLID_338_" class="st1" d="M155.3,134.5c0,3-2.1,4.4-4.1,4.4c-2.2,0-3.9-1.6-3.9-4.2c0-2.7,1.8-4.4,4.1-4.4
				C153.7,130.3,155.3,132,155.3,134.5z M148.8,134.6c0,1.8,1,3.2,2.5,3.2c1.4,0,2.5-1.3,2.5-3.2c0-1.4-0.7-3.2-2.5-3.2
				C149.5,131.4,148.8,133,148.8,134.6z"/>
			<path id="XMLID_341_" class="st1" d="M157.2,126.6h1.5v12h-1.5V126.6z"/>
			<path id="XMLID_343_" class="st1" d="M168.6,134.5c0,3-2.1,4.4-4.1,4.4c-2.2,0-3.9-1.6-3.9-4.2c0-2.7,1.8-4.4,4.1-4.4
				C167,130.3,168.6,132,168.6,134.5z M162.1,134.6c0,1.8,1,3.2,2.5,3.2c1.4,0,2.5-1.3,2.5-3.2c0-1.4-0.7-3.2-2.5-3.2
				C162.8,131.4,162.1,133,162.1,134.6z"/>
			<path id="XMLID_346_" class="st1" d="M177.5,130.5c0,0.6-0.1,1.3-0.1,2.3v4.8c0,1.9-0.4,3-1.2,3.8c-0.8,0.7-2,1-3,1
				c-1,0-2.1-0.2-2.7-0.7l0.4-1.1c0.5,0.3,1.4,0.6,2.4,0.6c1.5,0,2.6-0.8,2.6-2.9v-0.9h0c-0.5,0.8-1.3,1.4-2.6,1.4
				c-2,0-3.5-1.7-3.5-4c0-2.8,1.8-4.4,3.7-4.4c1.4,0,2.2,0.7,2.6,1.4h0l0.1-1.2H177.5z M176,133.7c0-0.3,0-0.5-0.1-0.7
				c-0.3-0.9-1-1.6-2.1-1.6c-1.4,0-2.4,1.2-2.4,3.1c0,1.6,0.8,3,2.4,3c0.9,0,1.7-0.6,2.1-1.5c0.1-0.3,0.1-0.5,0.1-0.8V133.7z"/>
			<path id="XMLID_349_" class="st1" d="M180.5,130.5l1.8,4.9c0.2,0.5,0.4,1.2,0.5,1.7h0c0.2-0.5,0.3-1.1,0.5-1.7l1.6-4.8h1.6
				l-2.2,5.9c-1.1,2.8-1.8,4.3-2.8,5.1c-0.7,0.6-1.5,0.9-1.8,1l-0.4-1.3c0.4-0.1,0.9-0.4,1.3-0.7c0.4-0.3,0.9-0.9,1.3-1.7
				c0.1-0.2,0.1-0.3,0.1-0.4c0-0.1,0-0.2-0.1-0.4l-3-7.6H180.5z"/>
		</g>
		<g id="XMLID_164_">
			<path id="XMLID_165_" class="st1" d="M43.9,115.5v6.9H43v-6.9H43.9z"/>
			<path id="XMLID_167_" class="st1" d="M45.5,118.7c0-0.5,0-0.9,0-1.3h0.8l0.1,0.8h0c0.2-0.5,0.8-0.9,1.6-0.9
				c0.7,0,1.7,0.4,1.7,2.1v2.9h-0.9v-2.8c0-0.8-0.3-1.5-1.1-1.5c-0.6,0-1,0.4-1.2,0.9c0,0.1-0.1,0.3-0.1,0.4v3h-0.9V118.7z"/>
			<path id="XMLID_169_" class="st1" d="M52.2,116v1.4h1.3v0.7h-1.3v2.7c0,0.6,0.2,1,0.7,1c0.2,0,0.4,0,0.5-0.1l0,0.7
				c-0.2,0.1-0.4,0.1-0.8,0.1c-0.4,0-0.8-0.1-1-0.4c-0.3-0.3-0.3-0.7-0.3-1.3v-2.7h-0.8v-0.7h0.8v-1.2L52.2,116z"/>
			<path id="XMLID_171_" class="st1" d="M54.9,120c0,1.2,0.8,1.7,1.7,1.7c0.6,0,1-0.1,1.4-0.3l0.2,0.6c-0.3,0.1-0.9,0.3-1.6,0.3
				c-1.5,0-2.4-1-2.4-2.5c0-1.5,0.9-2.7,2.3-2.7c1.6,0,2,1.4,2,2.3c0,0.2,0,0.3,0,0.4H54.9z M57.5,119.4c0-0.6-0.2-1.5-1.2-1.5
				c-0.9,0-1.3,0.8-1.4,1.5H57.5z"/>
			<path id="XMLID_174_" class="st1" d="M59.5,118.9c0-0.6,0-1.1,0-1.5h0.8l0,1h0c0.2-0.7,0.8-1.1,1.4-1.1c0.1,0,0.2,0,0.3,0v0.8
				c-0.1,0-0.2,0-0.3,0c-0.6,0-1.1,0.5-1.2,1.1c0,0.1,0,0.3,0,0.4v2.6h-0.9V118.9z"/>
			<path id="XMLID_176_" class="st1" d="M62.9,118.7c0-0.5,0-0.9,0-1.3h0.8l0.1,0.8h0c0.2-0.5,0.8-0.9,1.6-0.9
				c0.7,0,1.7,0.4,1.7,2.1v2.9h-0.9v-2.8c0-0.8-0.3-1.5-1.1-1.5c-0.6,0-1,0.4-1.2,0.9c0,0.1-0.1,0.3-0.1,0.4v3h-0.9V118.7z"/>
			<path id="XMLID_178_" class="st1" d="M71.2,122.3l-0.1-0.6h0c-0.3,0.4-0.8,0.7-1.5,0.7c-1,0-1.5-0.7-1.5-1.4c0-1.2,1.1-1.8,3-1.8
				v-0.1c0-0.4-0.1-1.1-1.1-1.1c-0.5,0-0.9,0.1-1.3,0.4l-0.2-0.6c0.4-0.3,1-0.4,1.6-0.4c1.5,0,1.9,1,1.9,2v1.8c0,0.4,0,0.8,0.1,1.2
				H71.2z M71.1,119.8c-1,0-2.1,0.2-2.1,1.1c0,0.6,0.4,0.9,0.8,0.9c0.6,0,1-0.4,1.2-0.8c0-0.1,0.1-0.2,0.1-0.3V119.8z"/>
			<path id="XMLID_181_" class="st1" d="M74.5,116v1.4h1.3v0.7h-1.3v2.7c0,0.6,0.2,1,0.7,1c0.2,0,0.4,0,0.5-0.1l0,0.7
				c-0.2,0.1-0.4,0.1-0.8,0.1c-0.4,0-0.8-0.1-1-0.4c-0.3-0.3-0.3-0.7-0.3-1.3v-2.7h-0.8v-0.7h0.8v-1.2L74.5,116z"/>
			<path id="XMLID_183_" class="st1" d="M77.8,116c0,0.3-0.2,0.5-0.6,0.5c-0.3,0-0.5-0.2-0.5-0.5c0-0.3,0.2-0.6,0.6-0.6
				C77.5,115.5,77.8,115.7,77.8,116z M76.8,122.3v-4.9h0.9v4.9H76.8z"/>
			<path id="XMLID_186_" class="st1" d="M83.6,119.8c0,1.8-1.3,2.6-2.5,2.6c-1.3,0-2.4-1-2.4-2.5c0-1.6,1.1-2.6,2.4-2.6
				C82.6,117.3,83.6,118.3,83.6,119.8z M79.7,119.9c0,1.1,0.6,1.9,1.5,1.9c0.9,0,1.5-0.8,1.5-1.9c0-0.8-0.4-1.9-1.5-1.9
				C80.1,118,79.7,118.9,79.7,119.9z"/>
			<path id="XMLID_189_" class="st1" d="M84.7,118.7c0-0.5,0-0.9,0-1.3h0.8l0.1,0.8h0c0.2-0.5,0.8-0.9,1.6-0.9
				c0.7,0,1.7,0.4,1.7,2.1v2.9H88v-2.8c0-0.8-0.3-1.5-1.1-1.5c-0.6,0-1,0.4-1.2,0.9c0,0.1-0.1,0.3-0.1,0.4v3h-0.9V118.7z"/>
			<path id="XMLID_191_" class="st1" d="M93.1,122.3l-0.1-0.6h0c-0.3,0.4-0.8,0.7-1.5,0.7c-1,0-1.5-0.7-1.5-1.4c0-1.2,1.1-1.8,3-1.8
				v-0.1c0-0.4-0.1-1.1-1.1-1.1c-0.5,0-0.9,0.1-1.3,0.4l-0.2-0.6c0.4-0.3,1-0.4,1.6-0.4c1.5,0,1.9,1,1.9,2v1.8c0,0.4,0,0.8,0.1,1.2
				H93.1z M93,119.8c-1,0-2.1,0.2-2.1,1.1c0,0.6,0.4,0.9,0.8,0.9c0.6,0,1-0.4,1.2-0.8c0-0.1,0.1-0.2,0.1-0.3V119.8z"/>
			<path id="XMLID_194_" class="st1" d="M95.3,115.1h0.9v7.2h-0.9V115.1z"/>
			<path id="XMLID_196_" class="st1" d="M99.8,121.2c0.4,0.2,1,0.4,1.6,0.4c0.9,0,1.4-0.5,1.4-1.2c0-0.6-0.4-1-1.3-1.4
				c-1.1-0.4-1.8-1-1.8-1.9c0-1.1,0.9-1.9,2.2-1.9c0.7,0,1.2,0.2,1.5,0.3l-0.2,0.7c-0.2-0.1-0.7-0.3-1.3-0.3c-0.9,0-1.3,0.6-1.3,1
				c0,0.6,0.4,1,1.4,1.3c1.2,0.4,1.8,1,1.8,2c0,1.1-0.8,2-2.4,2c-0.7,0-1.4-0.2-1.7-0.4L99.8,121.2z"/>
			<path id="XMLID_198_" class="st1" d="M105.1,117.4l1.1,2.9c0.1,0.3,0.2,0.7,0.3,1h0c0.1-0.3,0.2-0.7,0.3-1l1-2.9h0.9l-1.3,3.5
				c-0.6,1.7-1.1,2.6-1.7,3.1c-0.4,0.4-0.9,0.5-1.1,0.6l-0.2-0.8c0.2-0.1,0.5-0.2,0.8-0.4c0.2-0.2,0.5-0.5,0.8-1
				c0-0.1,0.1-0.2,0.1-0.2c0-0.1,0-0.1-0.1-0.2l-1.8-4.5H105.1z"/>
			<path id="XMLID_200_" class="st1" d="M109.6,118.7c0-0.5,0-0.9,0-1.3h0.8l0,0.8h0c0.3-0.5,0.7-0.9,1.5-0.9c0.7,0,1.2,0.4,1.4,1h0
				c0.2-0.3,0.3-0.5,0.5-0.6c0.3-0.2,0.6-0.3,1.1-0.3c0.7,0,1.6,0.4,1.6,2.1v2.9h-0.9v-2.8c0-0.9-0.3-1.5-1.1-1.5
				c-0.5,0-0.9,0.4-1.1,0.8c0,0.1-0.1,0.3-0.1,0.4v3h-0.9v-3c0-0.8-0.3-1.4-1-1.4c-0.6,0-1,0.4-1.1,0.9c-0.1,0.1-0.1,0.3-0.1,0.4v3
				h-0.9V118.7z"/>
			<path id="XMLID_202_" class="st1" d="M118.1,119c0-0.6,0-1.1,0-1.6h0.8l0,0.8h0c0.4-0.6,0.9-1,1.7-1c1.2,0,2.1,1,2.1,2.5
				c0,1.8-1.1,2.6-2.2,2.6c-0.7,0-1.2-0.3-1.5-0.8h0v2.7h-0.9V119z M119,120.3c0,0.1,0,0.3,0,0.4c0.2,0.6,0.7,1,1.3,1
				c0.9,0,1.5-0.8,1.5-1.9c0-1-0.5-1.8-1.5-1.8c-0.6,0-1.2,0.4-1.4,1.1c0,0.1-0.1,0.2-0.1,0.4V120.3z"/>
			<path id="XMLID_205_" class="st1" d="M128.3,119.8c0,1.8-1.3,2.6-2.5,2.6c-1.3,0-2.4-1-2.4-2.5c0-1.6,1.1-2.6,2.4-2.6
				C127.4,117.3,128.3,118.3,128.3,119.8z M124.4,119.9c0,1.1,0.6,1.9,1.5,1.9c0.9,0,1.5-0.8,1.5-1.9c0-0.8-0.4-1.9-1.5-1.9
				C124.9,118,124.4,118.9,124.4,119.9z"/>
			<path id="XMLID_208_" class="st1" d="M129.3,121.4c0.3,0.2,0.7,0.4,1.2,0.4c0.7,0,1-0.3,1-0.7c0-0.4-0.3-0.7-0.9-0.9
				c-0.9-0.3-1.3-0.8-1.3-1.4c0-0.8,0.6-1.4,1.7-1.4c0.5,0,0.9,0.1,1.2,0.3l-0.2,0.7c-0.2-0.1-0.5-0.3-1-0.3c-0.5,0-0.8,0.3-0.8,0.7
				c0,0.4,0.3,0.6,0.9,0.8c0.9,0.3,1.3,0.8,1.3,1.5c0,0.9-0.7,1.5-1.8,1.5c-0.5,0-1-0.1-1.4-0.3L129.3,121.4z"/>
			<path id="XMLID_210_" class="st1" d="M134.5,116c0,0.3-0.2,0.5-0.6,0.5c-0.3,0-0.5-0.2-0.5-0.5c0-0.3,0.2-0.6,0.6-0.6
				C134.3,115.5,134.5,115.7,134.5,116z M133.5,122.3v-4.9h0.9v4.9H133.5z"/>
			<path id="XMLID_213_" class="st1" d="M140,121c0,0.5,0,1,0,1.3h-0.8l-0.1-0.8h0c-0.2,0.4-0.8,0.9-1.6,0.9c-0.8,0-1.7-0.4-1.7-2.2
				v-2.9h0.9v2.7c0,0.9,0.3,1.6,1.1,1.6c0.6,0,1-0.4,1.2-0.8c0.1-0.1,0.1-0.3,0.1-0.5v-3h0.9V121z"/>
			<path id="XMLID_215_" class="st1" d="M141.5,118.7c0-0.5,0-0.9,0-1.3h0.8l0,0.8h0c0.3-0.5,0.7-0.9,1.5-0.9c0.7,0,1.2,0.4,1.4,1h0
				c0.2-0.3,0.3-0.5,0.5-0.6c0.3-0.2,0.6-0.3,1.1-0.3c0.7,0,1.6,0.4,1.6,2.1v2.9h-0.9v-2.8c0-0.9-0.3-1.5-1.1-1.5
				c-0.5,0-0.9,0.4-1.1,0.8c0,0.1-0.1,0.3-0.1,0.4v3h-0.9v-3c0-0.8-0.3-1.4-1-1.4c-0.6,0-1,0.4-1.1,0.9c-0.1,0.1-0.1,0.3-0.1,0.4v3
				h-0.9V118.7z"/>
			<path id="XMLID_217_" class="st1" d="M156.6,119.8c0,1.8-1.3,2.6-2.5,2.6c-1.3,0-2.4-1-2.4-2.5c0-1.6,1.1-2.6,2.4-2.6
				C155.6,117.3,156.6,118.3,156.6,119.8z M152.7,119.9c0,1.1,0.6,1.9,1.5,1.9c0.9,0,1.5-0.8,1.5-1.9c0-0.8-0.4-1.9-1.5-1.9
				C153.1,118,152.7,118.9,152.7,119.9z"/>
			<path id="XMLID_220_" class="st1" d="M157.7,118.7c0-0.5,0-0.9,0-1.3h0.8l0.1,0.8h0c0.2-0.5,0.8-0.9,1.6-0.9
				c0.7,0,1.7,0.4,1.7,2.1v2.9H161v-2.8c0-0.8-0.3-1.5-1.1-1.5c-0.6,0-1,0.4-1.2,0.9c0,0.1-0.1,0.3-0.1,0.4v3h-0.9V118.7z"/>
		</g>
	</g>
</g>
</svg>
