<svg xmlns="http://www.w3.org/2000/svg" xmlns:xlink="http://www.w3.org/1999/xlink" version="1.1" id="Layer_1" x="0px" y="0px" style="enable-background:new 0 0 25 25;" xml:space="preserve" viewBox="0 0 25 25">
<style type="text/css">
	.st0{fill:#FFFFFF;}
</style>
<circle class="st0" cx="12.5" cy="12.5" r="12.5"/>
<g id="XMLID_2_">
	<g id="XMLID_3_">
		<path id="XMLID_13_" d="M4.66,7.88c0-0.04,0.01-0.08,0.04-0.11c0.03-0.03,0.07-0.05,0.12-0.05h1.07c0.04,0,0.08,0.01,0.12,0.04    c0.04,0.03,0.06,0.07,0.06,0.12l-0.01,5.1c0,0.11-0.06,0.16-0.18,0.16H4.8c-0.11,0-0.16-0.05-0.16-0.16L4.66,7.88z"/>
		<path id="XMLID_12_" d="M11.36,8.12c0.04,0.02,0.07,0.06,0.09,0.09c0.02,0.04,0.02,0.09-0.01,0.14l-0.62,0.87    c-0.02,0.05-0.05,0.08-0.08,0.08c-0.03,0.01-0.07,0-0.11-0.03c-0.12-0.09-0.25-0.16-0.39-0.21s-0.3-0.07-0.46-0.07    c-0.2,0-0.38,0.04-0.55,0.11C9.07,9.18,8.91,9.28,8.8,9.41S8.59,9.69,8.52,9.87s-0.1,0.36-0.1,0.56c0,0.2,0.03,0.39,0.1,0.56    c0.06,0.17,0.16,0.33,0.28,0.46s0.27,0.23,0.43,0.31c0.17,0.08,0.35,0.11,0.55,0.11c0.16,0,0.31-0.02,0.46-0.07    c0.15-0.05,0.28-0.12,0.4-0.21c0.04-0.03,0.08-0.04,0.11-0.03c0.03,0,0.06,0.03,0.09,0.07l0.62,0.9c0.03,0.05,0.03,0.1,0.01,0.14    c-0.02,0.04-0.05,0.07-0.09,0.09c-0.23,0.15-0.48,0.27-0.74,0.35s-0.54,0.12-0.83,0.12c-0.26,0-0.51-0.03-0.74-0.1    c-0.24-0.07-0.46-0.16-0.67-0.28s-0.39-0.27-0.56-0.44c-0.17-0.17-0.31-0.36-0.43-0.56c-0.12-0.21-0.21-0.43-0.28-0.66    c-0.07-0.24-0.1-0.48-0.1-0.74s0.03-0.51,0.1-0.74c0.06-0.25,0.15-0.48,0.28-0.68c0.12-0.21,0.27-0.4,0.44-0.57    S8.2,8.15,8.41,8.03C8.61,7.9,8.84,7.81,9.07,7.74c0.24-0.07,0.48-0.1,0.74-0.1c0.29,0,0.57,0.04,0.83,0.12    C10.9,7.85,11.14,7.97,11.36,8.12"/>
		<path id="XMLID_8_" d="M12.38,7.9c0-0.05,0.01-0.09,0.04-0.12c0.03-0.03,0.07-0.05,0.12-0.05h2.42c0.21,0,0.42,0.04,0.61,0.12    c0.19,0.08,0.36,0.19,0.5,0.34c0.14,0.14,0.25,0.31,0.34,0.5c0.08,0.19,0.12,0.4,0.12,0.61c0,0.18-0.03,0.35-0.09,0.51    c-0.06,0.16-0.14,0.3-0.24,0.42c0.17,0.16,0.31,0.35,0.41,0.57c0.1,0.22,0.15,0.46,0.15,0.7c0,0.22-0.04,0.43-0.13,0.63    s-0.2,0.37-0.35,0.52c-0.15,0.15-0.31,0.27-0.51,0.35c-0.19,0.09-0.4,0.13-0.61,0.13l-2.64-0.01c-0.05,0-0.09-0.01-0.12-0.04    s-0.04-0.06-0.04-0.12L12.38,7.9z M15.11,9.34c0-0.07-0.01-0.14-0.04-0.2c-0.03-0.06-0.06-0.12-0.11-0.17    c-0.05-0.05-0.11-0.09-0.18-0.12c-0.07-0.03-0.14-0.04-0.22-0.04h-0.78v1.06h0.77c0.08,0,0.16-0.01,0.23-0.04s0.13-0.06,0.18-0.11    c0.05-0.05,0.09-0.1,0.12-0.17C15.11,9.49,15.11,9.42,15.11,9.34 M15.31,11.46c0-0.07-0.01-0.15-0.04-0.22    c-0.03-0.07-0.07-0.14-0.12-0.2c-0.05-0.06-0.11-0.1-0.18-0.14c-0.07-0.04-0.14-0.06-0.22-0.06h-0.97v1.22h0.97    c0.08,0,0.15-0.02,0.22-0.05c0.07-0.03,0.13-0.08,0.18-0.14s0.09-0.12,0.12-0.19S15.31,11.54,15.31,11.46"/>
		<path id="XMLID_7_" d="M17.4,7.9c0-0.04,0.01-0.08,0.04-0.11c0.03-0.03,0.07-0.05,0.12-0.05h1.08c0.04,0,0.08,0.01,0.11,0.04    c0.03,0.03,0.05,0.07,0.05,0.12l-0.01,3.97h2.01c0.04,0,0.08,0.01,0.11,0.04c0.03,0.03,0.05,0.07,0.05,0.12v0.96    c0,0.04-0.01,0.08-0.04,0.11c-0.03,0.03-0.07,0.05-0.12,0.05l-3.26-0.01c-0.11,0-0.16-0.05-0.16-0.16L17.4,7.9z"/>
		<path id="XMLID_6_" d="M19.56,6.96c0,0-0.05-0.04-0.15-0.13c-0.1-0.09-0.25-0.19-0.44-0.33c-0.19-0.13-0.43-0.27-0.7-0.42    c-0.27-0.14-0.59-0.28-0.93-0.42c-0.34-0.13-0.72-0.26-1.11-0.37c-0.4-0.12-0.82-0.2-1.25-0.28c-0.87-0.15-1.8-0.24-2.74-0.23    c-0.47,0-0.94,0.01-1.39,0.06c-0.46,0.04-0.91,0.1-1.35,0.17C9.06,5.1,8.64,5.18,8.24,5.3c-0.4,0.1-0.77,0.23-1.11,0.36    C6.79,5.8,6.47,5.94,6.2,6.09S5.69,6.38,5.5,6.51C5.31,6.64,5.16,6.75,5.06,6.84c-0.1,0.08-0.15,0.13-0.15,0.13    S4.95,6.9,5.04,6.79c0.09-0.12,0.23-0.27,0.41-0.46c0.18-0.18,0.41-0.39,0.68-0.59c0.13-0.1,0.28-0.2,0.43-0.31    c0.15-0.1,0.32-0.2,0.49-0.3C7.39,4.95,7.76,4.75,8.16,4.6c0.4-0.17,0.83-0.3,1.27-0.42c0.44-0.1,0.9-0.21,1.37-0.26    c0.47-0.06,0.95-0.08,1.42-0.09c0.48,0.01,0.95,0.03,1.42,0.09c0.47,0.05,0.93,0.16,1.37,0.26c0.44,0.11,0.87,0.25,1.27,0.42    c0.4,0.15,0.77,0.35,1.12,0.54c0.17,0.1,0.33,0.2,0.49,0.3c0.15,0.11,0.3,0.21,0.43,0.31c0.27,0.2,0.49,0.41,0.68,0.59    c0.18,0.18,0.32,0.34,0.41,0.46C19.51,6.9,19.56,6.96,19.56,6.96"/>
	</g>
	<g id="XMLID_1_">
		<g id="XMLID_55_">
			<path id="XMLID_56_" d="M3.89,14.38v1.04H3.76v-1.04H3.89z"/>
			<path id="XMLID_58_" d="M4.14,14.88c0-0.08,0-0.14-0.01-0.2h0.12l0.01,0.12l0,0c0.04-0.07,0.12-0.14,0.25-0.14     c0.1,0,0.26,0.06,0.26,0.32v0.45H4.64V15c0-0.12-0.04-0.22-0.17-0.22c-0.09,0-0.16,0.06-0.18,0.14c-0.01,0-0.01,0.03-0.01,0.05     v0.45H4.14V14.88z"/>
			<path id="XMLID_60_" d="M5.16,14.46v0.21h0.19v0.1H5.16v0.4c0,0.09,0.03,0.15,0.1,0.15c0.04,0,0.06,0,0.08-0.01l0.01,0.1     c-0.03,0.01-0.07,0.02-0.12,0.02c-0.06,0-0.11-0.02-0.15-0.06s-0.05-0.11-0.05-0.19v-0.41H4.91v-0.1h0.12v-0.18L5.16,14.46z"/>
			<path id="XMLID_62_" d="M5.57,15.07c0,0.18,0.12,0.26,0.26,0.26c0.1,0,0.16-0.02,0.21-0.04l0.02,0.1     C6,15.41,5.92,15.44,5.8,15.44c-0.23,0-0.37-0.15-0.37-0.38c0-0.23,0.13-0.4,0.35-0.4c0.24,0,0.31,0.21,0.31,0.35     c0,0.03,0,0.05,0,0.06C6.09,15.07,5.57,15.07,5.57,15.07z M5.97,14.97c0-0.09-0.04-0.22-0.19-0.22c-0.14,0-0.2,0.13-0.21,0.22     H5.97z"/>
			<path id="XMLID_65_" d="M6.27,14.91c0-0.09,0-0.16-0.01-0.23h0.12v0.15h0.01c0.03-0.1,0.12-0.16,0.21-0.16c0.02,0,0.03,0,0.04,0     v0.13c-0.01,0-0.03,0-0.05,0c-0.1,0-0.16,0.07-0.18,0.17c0,0.02-0.01,0.04-0.01,0.06v0.4H6.27V14.91z"/>
			<path id="XMLID_67_" d="M6.78,14.88c0-0.08,0-0.14-0.01-0.2h0.12l0.01,0.12l0,0c0.04-0.07,0.12-0.14,0.25-0.14     c0.1,0,0.26,0.06,0.26,0.32v0.45H7.29V15c0-0.12-0.04-0.22-0.17-0.22c-0.09,0-0.16,0.06-0.18,0.14     c-0.01,0.02-0.01,0.04-0.01,0.06v0.45H6.78V14.88z"/>
			<path id="XMLID_69_" d="M8.06,15.42l-0.01-0.09l0,0c-0.04,0.06-0.12,0.11-0.23,0.11c-0.15,0-0.23-0.11-0.23-0.21     c0-0.18,0.16-0.28,0.45-0.28v-0.02c0-0.06-0.02-0.17-0.17-0.17c-0.07,0-0.14,0.02-0.19,0.06l-0.03-0.09     c0.06-0.04,0.15-0.07,0.25-0.07c0.23,0,0.28,0.16,0.28,0.31v0.28c0,0.06,0,0.13,0.01,0.18H8.06V15.42z M8.03,15.04     c-0.15,0-0.32,0.02-0.32,0.17c0,0.09,0.06,0.13,0.13,0.13c0.1,0,0.16-0.06,0.18-0.13c0-0.01,0.01-0.03,0.01-0.04     C8.04,15.17,8.04,15.04,8.03,15.04z"/>
			<path id="XMLID_72_" d="M8.55,14.46v0.21h0.19v0.1H8.55v0.4c0,0.09,0.03,0.15,0.1,0.15c0.04,0,0.06,0,0.08-0.01l0.01,0.1     c-0.03,0.01-0.07,0.02-0.12,0.02c-0.06,0-0.11-0.02-0.15-0.06s-0.05-0.11-0.05-0.19v-0.41H8.3v-0.1h0.12v-0.18L8.55,14.46z"/>
			<path id="XMLID_74_" d="M9.05,14.46c0,0.05-0.03,0.08-0.09,0.08c-0.05,0-0.08-0.04-0.08-0.08c0-0.05,0.04-0.09,0.09-0.09     C9.01,14.38,9.05,14.41,9.05,14.46z M8.9,15.42v-0.75h0.14v0.75H8.9z"/>
			<path id="XMLID_77_" d="M9.94,15.04c0,0.28-0.19,0.4-0.37,0.4c-0.2,0-0.36-0.15-0.36-0.39c0-0.25,0.16-0.4,0.37-0.4     C9.78,14.66,9.94,14.81,9.94,15.04z M9.34,15.05c0,0.16,0.09,0.29,0.23,0.29c0.13,0,0.23-0.12,0.23-0.29     c0-0.13-0.06-0.29-0.22-0.29C9.4,14.76,9.34,14.91,9.34,15.05z"/>
			<path id="XMLID_80_" d="M10.11,14.88c0-0.08,0-0.14-0.01-0.2h0.12l0.01,0.12l0,0c0.04-0.07,0.12-0.14,0.25-0.14     c0.1,0,0.26,0.06,0.26,0.32v0.45H10.6V15c0-0.12-0.04-0.22-0.17-0.22c-0.09,0-0.16,0.06-0.18,0.14     c-0.01,0.02-0.01,0.04-0.01,0.06v0.45h-0.14v-0.55H10.11z"/>
			<path id="XMLID_82_" d="M11.38,15.42l-0.01-0.09l0,0c-0.04,0.06-0.12,0.11-0.23,0.11c-0.15,0-0.23-0.11-0.23-0.21     c0-0.18,0.16-0.28,0.45-0.28v-0.02c0-0.06-0.02-0.17-0.17-0.17c-0.07,0-0.14,0.02-0.19,0.06l-0.03-0.09     c0.06-0.04,0.15-0.07,0.25-0.07c0.23,0,0.28,0.16,0.28,0.31v0.28c0,0.06,0,0.13,0.01,0.18h-0.13V15.42z M11.36,15.04     c-0.15,0-0.32,0.02-0.32,0.17c0,0.09,0.06,0.13,0.13,0.13c0.1,0,0.16-0.06,0.18-0.13c0-0.01,0.01-0.03,0.01-0.04     C11.36,15.17,11.36,15.04,11.36,15.04z"/>
			<path id="XMLID_85_" d="M11.7,14.32h0.14v1.1H11.7V14.32z"/>
			<path id="XMLID_87_" d="M13.14,15.39c-0.05,0.02-0.15,0.05-0.28,0.05c-0.29,0-0.52-0.19-0.52-0.53c0-0.33,0.22-0.55,0.54-0.55     c0.13,0,0.21,0.03,0.25,0.05l-0.03,0.11c-0.05-0.02-0.12-0.04-0.21-0.04c-0.24,0-0.41,0.16-0.41,0.43c0,0.26,0.15,0.42,0.4,0.42     c0.08,0,0.17-0.02,0.22-0.04L13.14,15.39z"/>
			<path id="XMLID_89_" d="M13.95,15.04c0,0.28-0.19,0.4-0.37,0.4c-0.2,0-0.36-0.15-0.36-0.39c0-0.25,0.16-0.4,0.37-0.4     C13.82,14.66,13.95,14.81,13.95,15.04z M13.36,15.05c0,0.16,0.09,0.29,0.23,0.29c0.13,0,0.23-0.12,0.23-0.29     c0-0.13-0.06-0.29-0.22-0.29C13.44,14.76,13.36,14.91,13.36,15.05z"/>
			<path id="XMLID_92_" d="M14.14,14.88c0-0.08,0-0.14-0.01-0.2h0.12l0.01,0.12l0,0c0.04-0.07,0.12-0.14,0.25-0.14     c0.1,0,0.26,0.06,0.26,0.32v0.45h-0.14V15c0-0.12-0.04-0.22-0.17-0.22c-0.09,0-0.16,0.06-0.18,0.14     c-0.01,0.02-0.01,0.04-0.01,0.06v0.45h-0.14v-0.55H14.14z"/>
			<path id="XMLID_94_" d="M15.01,15.42v-0.64H14.9v-0.1h0.11v-0.04c0-0.11,0.02-0.2,0.09-0.26c0.05-0.05,0.12-0.07,0.18-0.07     c0.05,0,0.09,0.01,0.12,0.02l-0.02,0.11c-0.02-0.01-0.05-0.02-0.09-0.02c-0.12,0-0.15,0.1-0.15,0.22v0.04h0.18v0.1h-0.18v0.64     H15.01z"/>
			<path id="XMLID_96_" d="M15.49,15.07c0,0.18,0.12,0.26,0.26,0.26c0.1,0,0.16-0.02,0.21-0.04l0.02,0.1     c-0.05,0.02-0.13,0.05-0.25,0.05c-0.23,0-0.37-0.15-0.37-0.38c0-0.23,0.13-0.4,0.35-0.4c0.24,0,0.31,0.21,0.31,0.35     c0,0.03,0,0.05,0,0.06C16.02,15.07,15.49,15.07,15.49,15.07z M15.89,14.97c0-0.09-0.04-0.22-0.19-0.22     c-0.14,0-0.2,0.13-0.21,0.22H15.89z"/>
			<path id="XMLID_99_" d="M16.19,14.91c0-0.09,0-0.16-0.01-0.23h0.12v0.15h0.01c0.03-0.1,0.12-0.16,0.21-0.16c0.02,0,0.03,0,0.04,0     v0.13c-0.01,0-0.03,0-0.05,0c-0.1,0-0.16,0.07-0.18,0.17c0,0.02-0.01,0.04-0.01,0.06v0.4H16.2C16.2,15.43,16.2,14.91,16.19,14.91     z"/>
			<path id="XMLID_101_" d="M16.76,15.07c0,0.18,0.12,0.26,0.26,0.26c0.1,0,0.16-0.02,0.21-0.04l0.02,0.1     c-0.05,0.02-0.13,0.05-0.25,0.05c-0.23,0-0.37-0.15-0.37-0.38c0-0.23,0.13-0.4,0.35-0.4c0.24,0,0.31,0.21,0.31,0.35     c0,0.03,0,0.05,0,0.06C17.29,15.07,16.76,15.07,16.76,15.07z M17.17,14.97c0-0.09-0.04-0.22-0.19-0.22     c-0.14,0-0.2,0.13-0.21,0.22H17.17z"/>
			<path id="XMLID_104_" d="M17.47,14.88c0-0.08,0-0.14-0.01-0.2h0.12l0.01,0.12l0,0c0.04-0.07,0.12-0.14,0.25-0.14     c0.1,0,0.26,0.06,0.26,0.32v0.45h-0.14V15c0-0.12-0.04-0.22-0.17-0.22c-0.09,0-0.16,0.06-0.18,0.14     c-0.01,0.02-0.01,0.04-0.01,0.06v0.45h-0.14L17.47,14.88L17.47,14.88z"/>
			<path id="XMLID_106_" d="M18.85,15.39c-0.04,0.02-0.11,0.04-0.22,0.04c-0.23,0-0.37-0.15-0.37-0.38c0-0.23,0.16-0.4,0.4-0.4     c0.08,0,0.15,0.02,0.19,0.04l-0.03,0.11c-0.03-0.02-0.08-0.04-0.16-0.04c-0.17,0-0.26,0.13-0.26,0.28c0,0.17,0.11,0.28,0.26,0.28     c0.08,0,0.13-0.02,0.17-0.04L18.85,15.39z"/>
			<path id="XMLID_108_" d="M19.08,15.07c0,0.18,0.12,0.26,0.26,0.26c0.1,0,0.16-0.02,0.21-0.04l0.02,0.1     c-0.05,0.02-0.13,0.05-0.25,0.05c-0.23,0-0.37-0.15-0.37-0.38c0-0.23,0.13-0.4,0.35-0.4c0.24,0,0.31,0.21,0.31,0.35     c0,0.03,0,0.05,0,0.06C19.61,15.07,19.08,15.07,19.08,15.07z M19.49,14.97c0-0.09-0.04-0.22-0.19-0.22     c-0.14,0-0.2,0.13-0.21,0.22H19.49z"/>
			<path id="XMLID_111_" d="M20.78,15.04c0,0.28-0.19,0.4-0.37,0.4c-0.2,0-0.36-0.15-0.36-0.39c0-0.25,0.16-0.4,0.37-0.4     C20.65,14.66,20.78,14.81,20.78,15.04z M20.19,15.05c0,0.16,0.09,0.29,0.23,0.29c0.13,0,0.23-0.12,0.23-0.29     c0-0.13-0.06-0.29-0.22-0.29C20.26,14.76,20.19,14.91,20.19,15.05z"/>
			<path id="XMLID_114_" d="M20.96,14.88c0-0.08,0-0.14-0.01-0.2h0.12l0.01,0.12l0,0c0.04-0.07,0.12-0.14,0.25-0.14     c0.1,0,0.26,0.06,0.26,0.32v0.45h-0.14V15c0-0.12-0.04-0.22-0.17-0.22c-0.09,0-0.16,0.06-0.18,0.14     c-0.01,0.02-0.01,0.04-0.01,0.06v0.45h-0.14L20.96,14.88L20.96,14.88z"/>
		</g>
		<g id="XMLID_14_">
			<path id="XMLID_15_" d="M2.93,16.26c0.1-0.02,0.27-0.04,0.43-0.04c0.24,0,0.39,0.04,0.5,0.13c0.09,0.07,0.15,0.18,0.15,0.32     c0,0.18-0.12,0.33-0.31,0.4v0.01c0.17,0.04,0.38,0.19,0.38,0.46c0,0.16-0.06,0.28-0.15,0.37C3.8,18.03,3.6,18.08,3.3,18.08     c-0.16,0-0.29-0.01-0.37-0.02C2.93,18.06,2.93,16.26,2.93,16.26z M3.16,17.01h0.22c0.25,0,0.4-0.13,0.4-0.31     c0-0.21-0.16-0.3-0.4-0.3c-0.11,0-0.17,0.01-0.21,0.02L3.16,17.01L3.16,17.01z M3.16,17.88c0.05,0.01,0.11,0.01,0.2,0.01     c0.24,0,0.47-0.09,0.47-0.35c0-0.25-0.21-0.35-0.47-0.35h-0.2V17.88z"/>
			<path id="XMLID_19_" d="M4.39,16.14h0.24v1.92H4.39V16.14z"/>
			<path id="XMLID_21_" d="M5.16,17.45c0.01,0.32,0.21,0.45,0.45,0.45c0.17,0,0.27-0.03,0.36-0.07L6.01,18     c-0.08,0.04-0.23,0.08-0.44,0.08c-0.4,0-0.64-0.27-0.64-0.66s0.23-0.71,0.61-0.71c0.43,0,0.54,0.38,0.54,0.62     c0,0.05-0.01,0.09-0.01,0.11L5.16,17.45L5.16,17.45z M5.86,17.28c0-0.15-0.06-0.39-0.33-0.39c-0.24,0-0.35,0.22-0.37,0.39H5.86z"/>
			<path id="XMLID_24_" d="M6.39,17.11c0-0.14,0-0.25-0.01-0.35h0.21l0.01,0.22h0.01c0.06-0.12,0.22-0.25,0.43-0.25     c0.18,0,0.46,0.11,0.46,0.56v0.78H7.26v-0.76c0-0.21-0.08-0.39-0.3-0.39c-0.16,0-0.28,0.11-0.32,0.24     c-0.01,0.03-0.02,0.07-0.02,0.11v0.79H6.39V17.11z"/>
			<path id="XMLID_26_" d="M9.02,16.14v1.58c0,0.12,0,0.25,0.01,0.34H8.82l-0.01-0.23H8.8c-0.07,0.15-0.23,0.26-0.45,0.26     c-0.32,0-0.56-0.27-0.56-0.67c0-0.44,0.27-0.7,0.59-0.7c0.2,0,0.34,0.09,0.4,0.2h0v-0.78H9.02z M8.78,17.28     c0-0.03,0-0.07-0.01-0.1C8.73,17.03,8.6,16.9,8.43,16.9c-0.25,0-0.39,0.22-0.39,0.51c0,0.27,0.13,0.48,0.39,0.48     c0.16,0,0.31-0.11,0.35-0.28c0.01-0.03,0.01-0.06,0.01-0.1v-0.23H8.78z"/>
			<path id="XMLID_29_" d="M9.55,17.45c0.01,0.32,0.21,0.45,0.45,0.45c0.17,0,0.27-0.03,0.36-0.07L10.39,18     c-0.08,0.04-0.23,0.08-0.44,0.08c-0.4,0-0.64-0.27-0.64-0.66s0.23-0.71,0.61-0.71c0.43,0,0.54,0.38,0.54,0.62     c0,0.05-0.01,0.09-0.01,0.11L9.55,17.45L9.55,17.45z M10.24,17.28c0-0.15-0.06-0.39-0.33-0.39c-0.24,0-0.35,0.22-0.37,0.39H10.24     z"/>
			<path id="XMLID_32_" d="M11.9,16.14v1.58c0,0.12,0,0.25,0.01,0.34H11.7l-0.01-0.23h-0.01c-0.07,0.15-0.23,0.26-0.45,0.26     c-0.32,0-0.56-0.27-0.56-0.67c0-0.44,0.27-0.7,0.59-0.7c0.2,0,0.34,0.09,0.4,0.2h0.01v-0.78H11.9z M11.66,17.28     c0-0.03,0-0.07-0.01-0.1c-0.04-0.15-0.17-0.28-0.34-0.28c-0.25,0-0.39,0.22-0.39,0.51c0,0.27,0.13,0.48,0.39,0.48     c0.16,0,0.31-0.11,0.35-0.28c0.01-0.03,0.01-0.06,0.01-0.1v-0.23H11.66z"/>
			<path id="XMLID_35_" d="M12.88,16.24h0.24v1.63h0.78v0.2h-1.02V16.24z"/>
			<path id="XMLID_37_" d="M14.24,17.45c0.01,0.32,0.21,0.45,0.45,0.45c0.17,0,0.27-0.03,0.36-0.07L15.09,18     c-0.08,0.04-0.23,0.08-0.44,0.08c-0.4,0-0.64-0.27-0.64-0.66s0.23-0.71,0.61-0.71c0.43,0,0.54,0.38,0.54,0.62     c0,0.05-0.01,0.09-0.01,0.11L14.24,17.45L14.24,17.45z M14.95,17.28c0-0.15-0.06-0.39-0.33-0.39c-0.24,0-0.35,0.22-0.37,0.39     H14.95z"/>
			<path id="XMLID_40_" d="M16.19,18.06l-0.02-0.16h-0.01c-0.07,0.1-0.21,0.19-0.4,0.19c-0.27,0-0.4-0.19-0.4-0.38     c0-0.32,0.28-0.49,0.79-0.49V17.2c0-0.11-0.03-0.3-0.3-0.3c-0.12,0-0.25,0.04-0.34,0.1l-0.05-0.16c0.11-0.07,0.27-0.12,0.43-0.12     c0.4,0,0.5,0.27,0.5,0.54v0.49c0,0.11,0.01,0.22,0.02,0.31C16.42,18.06,16.19,18.06,16.19,18.06z M16.15,17.39     c-0.26-0.01-0.56,0.04-0.56,0.3c0,0.15,0.1,0.23,0.22,0.23c0.17,0,0.28-0.11,0.32-0.22c0.01-0.02,0.01-0.05,0.01-0.08     L16.15,17.39L16.15,17.39z"/>
			<path id="XMLID_43_" d="M16.78,17.16c0-0.15,0-0.29-0.01-0.41h0.21l0.01,0.26h0.01c0.06-0.18,0.2-0.29,0.36-0.29     c0.03,0,0.05,0,0.07,0.01v0.22c-0.02-0.01-0.05-0.01-0.08-0.01c-0.17,0-0.29,0.13-0.32,0.31c-0.01,0.03-0.01,0.07-0.01,0.11v0.7     h-0.24V17.16z"/>
			<path id="XMLID_45_" d="M17.67,17.11c0-0.14,0-0.25-0.01-0.35h0.21l0.01,0.22h0.01c0.06-0.12,0.22-0.25,0.43-0.25     c0.18,0,0.46,0.11,0.46,0.56v0.78h-0.24v-0.76c0-0.21-0.08-0.39-0.3-0.39c-0.16,0-0.28,0.11-0.32,0.24     c-0.01,0.03-0.02,0.07-0.02,0.11v0.79h-0.24v-0.95H17.67z"/>
			<path id="XMLID_47_" d="M19.44,16.38c0,0.08-0.06,0.15-0.15,0.15c-0.08,0-0.14-0.06-0.14-0.15c0-0.08,0.06-0.15,0.15-0.15     C19.38,16.23,19.44,16.3,19.44,16.38z M19.17,18.06v-1.31h0.24v1.31H19.17z"/>
			<path id="XMLID_50_" d="M19.81,17.11c0-0.14,0-0.25-0.01-0.35H20l0.01,0.22h0.01c0.06-0.12,0.22-0.25,0.43-0.25     c0.18,0,0.46,0.11,0.46,0.56v0.78h-0.24v-0.76c0-0.21-0.08-0.39-0.3-0.39c-0.16,0-0.28,0.11-0.32,0.24     c-0.01,0.03-0.02,0.07-0.02,0.11v0.79h-0.24v-0.95H19.81z"/>
			<path id="XMLID_52_" d="M22.44,16.75c-0.01,0.09-0.01,0.2-0.01,0.36v0.76c0,0.3-0.06,0.48-0.19,0.6s-0.31,0.16-0.48,0.16     c-0.16,0-0.33-0.04-0.44-0.11l0.06-0.18c0.09,0.05,0.22,0.1,0.38,0.1c0.24,0,0.42-0.13,0.42-0.46v-0.15h-0.01     c-0.07,0.12-0.21,0.22-0.42,0.22c-0.32,0-0.56-0.28-0.56-0.64c0-0.44,0.29-0.7,0.59-0.7c0.23,0,0.35,0.12,0.41,0.23h0.01     l0.01-0.2h0.23V16.75z M22.19,17.27c0-0.04,0-0.08-0.01-0.11c-0.04-0.14-0.16-0.25-0.33-0.25c-0.23,0-0.39,0.19-0.39,0.5     c0,0.26,0.13,0.47,0.39,0.47c0.15,0,0.28-0.09,0.33-0.24c0.01-0.04,0.02-0.09,0.02-0.13v-0.24H22.19z"/>
		</g>
	</g>
</g>
</svg>